<svg width="44" height="43" xmlns="http://www.w3.org/2000/svg" xmlns:xlink="http://www.w3.org/1999/xlink" xml:space="preserve" overflow="hidden"><g transform="translate(-184 -93)"><path d="M32.6979 36.7292 10.3021 36.7292 10.3021 6.27083 32.6979 6.27083 32.6979 36.7292ZM35.3854 3.58333 7.61458 3.58333 7.61458 39.4167 35.3854 39.4167 35.3854 3.58333Z" fill="#156082" transform="matrix(1.02326 0 0 1 184 93)"/><path d="M12.9896 29.5625 21.0521 29.5625 21.0521 31.3542 12.9896 31.3542Z" fill="#156082" transform="matrix(1.02326 0 0 1 184 93)"/><path d="M12.9896 9.85417 30.0104 9.85417 30.0104 11.6458 12.9896 11.6458Z" fill="#156082" transform="matrix(1.02326 0 0 1 184 93)"/><path d="M12.9896 13.4375 30.0104 13.4375 30.0104 15.2292 12.9896 15.2292Z" fill="#156082" transform="matrix(1.02326 0 0 1 184 93)"/><path d="M12.9896 17.0208 30.0104 17.0208 30.0104 18.8125 12.9896 18.8125Z" fill="#156082" transform="matrix(1.02326 0 0 1 184 93)"/><path d="M21.5 20.6042 30.0104 20.6042 30.0104 22.3958 21.5 22.3958Z" fill="#156082" transform="matrix(1.02326 0 0 1 184 93)"/><path d="M28.6219 33.5938 26.875 31.8469 25.1281 33.5938 23.7396 32.2052 25.4865 30.4583 23.7396 28.7115 25.1281 27.3229 26.875 29.0698 28.6219 27.3229 30.0104 28.7115 28.2635 30.4583 30.0104 32.2052Z" fill="#156082" transform="matrix(1.02326 0 0 1 184 93)"/></g></svg>