<svg width="43" height="43" xmlns="http://www.w3.org/2000/svg" xmlns:xlink="http://www.w3.org/1999/xlink" xml:space="preserve" overflow="hidden"><g transform="translate(-88 -92)"><path d="M109.052 120.667 109.052 132.94 115.323 132.94C115.323 133.343 115.636 133.656 116.04 133.656L118.458 133.656C118.861 133.656 119.175 133.343 119.175 132.94L125.446 132.94 125.446 120.667 109.052 120.667ZM116.756 131.506 110.485 131.506 110.485 122.1 116.756 122.1 116.756 131.506ZM123.968 131.506 117.697 131.506 117.697 122.1 123.968 122.1 123.968 131.506Z" fill="#156082"/><path d="M119.175 124.519 122.534 124.519 122.534 125.235 119.175 125.235Z" fill="#156082"/><path d="M119.175 125.952 122.534 125.952 122.534 126.669 119.175 126.669Z" fill="#156082"/><path d="M119.175 127.385 121.504 127.385 121.504 128.102 119.175 128.102Z" fill="#156082"/><path d="M106.051 117.128C108.335 117.666 110.709 117.666 112.949 117.128L112.815 119.771 123.161 119.771C122.893 118.965 122.4 118.293 121.728 117.755 120.34 116.546 118.369 115.516 115.681 114.53L114.248 113.948C114.114 113.858 113.979 113.724 113.979 113.5L113.979 112.828C115.323 112.335 116.98 111.44 117.607 110.006 118.817 107.408 117.607 96.076 109.634 95.8521L109.41 95.8521C101.393 96.076 100.228 107.453 101.393 110.006 102.065 111.395 103.677 112.291 105.021 112.828L105.021 113.5C105.021 113.679 104.931 113.858 104.752 113.903L103.364 114.485 103.364 114.485C100.631 115.471 98.7052 116.501 97.3167 117.71 96.2865 118.561 95.7042 119.771 95.6594 121.07L95.6594 124.116C95.301 124.026 94.9427 124.026 94.6292 124.071L90.9563 111.977C90.8219 111.619 90.4635 111.44 90.1052 111.529 89.7469 111.619 89.5677 112.022 89.6573 112.335L93.3302 124.34C91.9417 124.787 91.0906 125.594 91.7625 128.192 92.3 130.297 93.151 130.879 94.226 130.879 94.7188 130.879 95.1667 130.79 95.6594 130.655 96.2865 130.521 96.824 130.207 97.2719 129.804 99.4219 130.655 102.96 131.148 106.768 131.327L106.051 117.128ZM95.1667 128.998C93.8229 129.356 93.8229 129.356 93.4198 127.833 93.0167 126.31 93.0167 126.31 94.3156 125.997L94.45 125.952C94.7188 125.907 94.9875 125.907 95.2115 125.952L95.301 125.997C95.8385 126.131 96.2865 126.534 96.4208 127.072 96.6448 127.923 96.0625 128.819 95.1667 128.998ZM111.157 101.406C112.008 102.929 114.203 103.377 114.875 105.527L114.875 106.781C114.875 109.738 112.456 112.156 109.5 112.156 106.544 112.156 104.125 109.738 104.125 106.781L104.125 105.079C105.2 103.153 110.441 103.511 111.157 101.406ZM106.812 113.5 106.812 113.41C108.515 114.127 110.485 114.127 112.188 113.41L112.188 113.5C112.188 114.172 112.501 114.799 112.994 115.247 111.874 115.605 110.709 115.74 109.5 115.74 108.335 115.74 107.126 115.605 106.006 115.247 106.499 114.844 106.812 114.172 106.812 113.5Z" fill="#156082"/></g></svg>